<svg width="21" height="15" viewBox="0 0 21 15" fill="none" xmlns="http://www.w3.org/2000/svg">
<path d="M20.6021 4.8605C20.7621 4.74167 21 4.85283 21 5.04066V12.8795C21 13.8953 20.1182 14.7195 19.0312 14.7195H1.96875C0.881836 14.7195 0 13.8953 0 12.8795V5.04449C0 4.85283 0.233789 4.7455 0.397852 4.86433C1.3166 5.53131 2.53477 6.37844 6.71836 9.21884C7.58379 9.80916 9.04395 11.0511 10.5 11.0434C11.9643 11.0549 13.4531 9.78616 14.2857 9.21884C18.4693 6.37844 19.6834 5.52747 20.6021 4.8605ZM10.5 9.81299C11.4516 9.82832 12.8215 8.69369 13.5105 8.22604C18.9533 4.53467 19.3676 4.21269 20.6227 3.29272C20.8605 3.12022 21 2.8519 21 2.56824V1.83994C21 0.824138 20.1182 0 19.0312 0H1.96875C0.881836 0 0 0.824138 0 1.83994V2.56824C0 2.8519 0.139453 3.11639 0.377344 3.29272C1.63242 4.20885 2.04668 4.53467 7.48945 8.22604C8.17852 8.69369 9.54844 9.82832 10.5 9.81299Z" fill="#A4A4A4"/>
</svg>
