<svg width="21" height="23" viewBox="0 0 21 23" fill="none" xmlns="http://www.w3.org/2000/svg">
<path d="M18.75 11.2149H7.125V6.69828C7.125 4.96349 8.61094 3.5222 10.4672 3.50468C12.3422 3.48716 13.875 4.91092 13.875 6.65886V7.35978C13.875 7.94243 14.3766 8.41118 15 8.41118H16.5C17.1234 8.41118 17.625 7.94243 17.625 7.35978V6.65886C17.625 2.97899 14.4141 -0.0130993 10.4766 4.31298e-05C6.53906 0.0131855 3.375 3.0447 3.375 6.72457V11.2149H2.25C1.00781 11.2149 0 12.1568 0 13.3177V20.3269C0 21.4879 1.00781 22.4297 2.25 22.4297H18.75C19.9922 22.4297 21 21.4879 21 20.3269V13.3177C21 12.1568 19.9922 11.2149 18.75 11.2149ZM12.375 17.8737C12.375 18.8419 11.5359 19.626 10.5 19.626C9.46406 19.626 8.625 18.8419 8.625 17.8737V15.7709C8.625 14.8028 9.46406 14.0186 10.5 14.0186C11.5359 14.0186 12.375 14.8028 12.375 15.7709V17.8737Z" fill="#A4A4A4"/>
</svg>
